<svg t="1686220818376" class="icon" viewBox="0 0 1024 1024" version="1.1" xmlns="http://www.w3.org/2000/svg" p-id="13076" width="200" height="200"><path d="M988.571371 0.051197c19.506225 0 35.377431 15.871206 35.377432 35.582221v264.332384c0 19.60862-15.871206 35.531023-35.377432 35.531023a35.479826 35.479826 0 0 1-35.428628-35.531023V121.491525l-258.444678 268.530574a390.585271 390.585271 0 0 1 84.117394 242.829458c0 216.053197-174.327284 391.148443-389.407729 391.148443C174.378481 1024 0 848.904755 0 632.851557s174.327284-391.148443 389.40773-391.148442c98.247888 0 187.945803 36.554972 256.499175 96.814359l257.113544-267.353032h-191.734413A35.479826 35.479826 0 0 1 675.80621 35.633418c0-19.659817 15.871206-35.582221 35.428628-35.582221h277.285336zM389.40773 312.867557c-175.965602 0-318.60167 143.250437-318.60167 319.984s142.636068 320.035198 318.60167 320.035199 318.60167-143.301635 318.60167-319.984001c0-176.784761-142.636068-320.035198-318.60167-320.035198z" fill="#1296db" p-id="13077"></path></svg>